<svg width="16" height="16" viewBox="0 0 16 16" fill="none" xmlns="http://www.w3.org/2000/svg">
<path d="M14.9972 11.739C14.6153 12.5719 14.4313 12.9442 13.9402 13.6792C13.2525 14.7064 12.2827 15.989 11.0845 15.9972C10.0178 16.0067 9.74249 15.3137 8.29392 15.326C6.84673 15.3328 6.54512 16.0107 5.47702 15.9999C4.27748 15.989 3.36019 14.8341 2.67257 13.8083C0.749444 10.932 0.546063 7.55972 1.73453 5.76626C2.57572 4.49453 3.90531 3.74725 5.15465 3.74725C6.42751 3.74725 7.2272 4.43339 8.2787 4.43339C9.29975 4.43339 9.92097 3.74589 11.3931 3.74589C12.5054 3.74589 13.6814 4.341 14.5226 5.36816C11.7721 6.84913 12.219 10.7064 14.9972 11.739ZM10.2752 2.59781C10.8106 1.92254 11.2173 0.970101 11.0693 0C10.1963 0.0584235 9.17523 0.605973 8.57893 1.31521C8.03796 1.96194 7.58969 2.92117 7.76402 3.84915C8.71728 3.87905 9.70375 3.32063 10.2752 2.59781Z" fill="black"/>
</svg>
