<svg width="16" height="16" viewBox="0 0 16 16" fill="none" xmlns="http://www.w3.org/2000/svg">
<path d="M15.8444 6.4332H15.2V6.4H8V9.6H12.5212C11.8616 11.4628 10.0892 12.8 8 12.8C5.3492 12.8 3.2 10.6508 3.2 8C3.2 5.3492 5.3492 3.2 8 3.2C9.2236 3.2 10.3368 3.6616 11.1844 4.4156L13.4472 2.1528C12.0184 0.8212 10.1072 0 8 0C3.582 0 0 3.582 0 8C0 12.418 3.582 16 8 16C12.418 16 16 12.418 16 8C16 7.4636 15.9448 6.94 15.8444 6.4332Z" fill="#FFC107"/>
<path d="M0.9224 4.2764L3.5508 6.204C4.262 4.4432 5.9844 3.2 8 3.2C9.2236 3.2 10.3368 3.6616 11.1844 4.4156L13.4472 2.1528C12.0184 0.8212 10.1072 0 8 0C4.9272 0 2.2624 1.7348 0.9224 4.2764Z" fill="#FF3D00"/>
<path d="M8 16C10.0664 16 11.944 15.2092 13.3636 13.9232L10.8876 11.828C10.0844 12.4364 9.086 12.8 8 12.8C5.9192 12.8 4.1524 11.4732 3.4868 9.6216L0.878 11.6316C2.202 14.2224 4.8908 16 8 16Z" fill="#4CAF50"/>
<path d="M15.8444 6.4332H15.2V6.4H8V9.6H12.5212C12.2044 10.4948 11.6288 11.2664 10.8864 11.8284L10.8876 11.828L13.3636 13.9232C13.1884 14.0824 16 12 16 8C16 7.4636 15.9448 6.94 15.8444 6.4332Z" fill="#1976D2"/>
</svg>
