<svg width="16" height="16" viewBox="0 0 16 16" fill="none" xmlns="http://www.w3.org/2000/svg">
<path d="M15.9972 8C15.9972 12.418 12.4152 16 7.99719 16C3.57919 16 -0.00280762 12.418 -0.00280762 8C-0.00280762 3.582 3.57919 0 7.99719 0C12.4152 0 15.9972 3.582 15.9972 8Z" fill="url(#paint0_linear_1491_10891)"/>
<path opacity="0.05" d="M9.90319 6.8H5.59719V8.8H7.96119C7.37479 9.7668 6.67119 10 5.99719 10C4.67159 10 3.99719 8.8132 3.99719 8C3.99719 7.2244 4.82119 6 5.99719 6C6.59719 6 7.14439 6.2216 7.56519 6.586L8.82559 5.3436C8.18559 4.7576 7.48839 4 5.99719 4C4.00879 4 1.99719 5.6692 1.99719 8C1.99719 9.9884 3.59519 12 5.99719 12C8.48719 12 9.99719 9.9884 9.99719 8C9.99719 7.5336 9.90319 6.8 9.90319 6.8Z" fill="black"/>
<path opacity="0.07" d="M9.70316 6.99991H5.79716V8.59991H8.16116C7.77276 9.65071 6.92836 10.1999 5.99716 10.1999C4.67156 10.1999 3.79716 9.06951 3.79716 7.99991C3.79716 6.94911 4.74636 5.79991 5.99716 5.79991C6.59716 5.79991 7.14436 6.02151 7.56516 6.38591L8.62556 5.34351C7.98556 4.75751 7.21076 4.19991 5.99716 4.19991C4.00876 4.19991 2.19716 5.84031 2.19716 7.99991C2.19716 9.98831 3.80196 11.7999 5.99716 11.7999C8.23636 11.7999 9.79716 9.98831 9.79716 7.99991C9.79716 7.53351 9.70316 6.99991 9.70316 6.99991Z" fill="black"/>
<path d="M9.52319 7.28028L9.50319 7.20028H5.99719V8.40028H8.36119C8.17039 9.53508 7.18599 10.4003 5.99719 10.4003C4.67159 10.4003 3.59719 9.32588 3.59719 8.00028C3.59719 6.67468 4.67159 5.60028 5.99719 5.60028C6.59719 5.60028 7.14439 5.82188 7.56519 6.18628L8.42559 5.34388C7.78559 4.75788 6.93319 4.40028 5.99719 4.40028C4.00879 4.40028 2.39719 6.01188 2.39719 8.00028C2.39719 9.98868 4.00879 11.6003 5.99719 11.6003C7.98559 11.6003 9.59719 9.98868 9.59719 8.00028C9.59719 7.75348 9.57079 7.51308 9.52319 7.28028Z" fill="white"/>
<path opacity="0.05" d="M13.7972 6.79972H13.1972V6.19972C13.1972 5.86852 12.9284 5.59972 12.5972 5.59972H12.1972C11.866 5.59972 11.5972 5.86852 11.5972 6.19972V6.79972H10.9972C10.666 6.79972 10.3972 7.06852 10.3972 7.39972V7.79972C10.3972 8.13092 10.666 8.39972 10.9972 8.39972H11.5972V8.99972C11.5972 9.33092 11.866 9.59972 12.1972 9.59972H12.5972C12.9284 9.59972 13.1972 9.33092 13.1972 8.99972V8.39972H13.7972C14.1284 8.39972 14.3972 8.13092 14.3972 7.79972V7.39972C14.3972 7.06852 14.1284 6.79972 13.7972 6.79972Z" fill="black"/>
<path opacity="0.07" d="M13.7972 7.00009H12.9972V6.20009C12.9972 5.97929 12.818 5.80009 12.5972 5.80009H12.1972C11.9764 5.80009 11.7972 5.97929 11.7972 6.20009V7.00009H10.9972C10.7764 7.00009 10.5972 7.17929 10.5972 7.40009V7.80009C10.5972 8.02089 10.7764 8.20009 10.9972 8.20009H11.7972V9.00009C11.7972 9.22089 11.9764 9.40009 12.1972 9.40009H12.5972C12.818 9.40009 12.9972 9.22089 12.9972 9.00009V8.20009H13.7972C14.018 8.20009 14.1972 8.02089 14.1972 7.80009V7.40009C14.1972 7.17929 14.018 7.00009 13.7972 7.00009Z" fill="black"/>
<path d="M12.1972 6H12.5972C12.7076 6 12.7972 6.0896 12.7972 6.2V9C12.7972 9.1104 12.7076 9.2 12.5972 9.2H12.1972C12.0868 9.2 11.9972 9.1104 11.9972 9V6.2C11.9972 6.0896 12.0868 6 12.1972 6Z" fill="white"/>
<path d="M10.9972 7.19991H13.7972C13.9076 7.19991 13.9972 7.28951 13.9972 7.39991V7.79991C13.9972 7.91031 13.9076 7.99991 13.7972 7.99991H10.9972C10.8868 7.99991 10.7972 7.91031 10.7972 7.79991V7.39991C10.7972 7.28951 10.8868 7.19991 10.9972 7.19991Z" fill="white"/>
<defs>
<linearGradient id="paint0_linear_1491_10891" x1="2.34039" y1="2.3432" x2="13.654" y2="13.6568" gradientUnits="userSpaceOnUse">
<stop stop-color="#F44F5A"/>
<stop offset="0.443" stop-color="#EE3D4A"/>
<stop offset="1" stop-color="#E52030"/>
</linearGradient>
</defs>
</svg>
