<svg width="16" height="16" viewBox="0 0 16 16" fill="none" xmlns="http://www.w3.org/2000/svg">
<path d="M7.99719 0C5.87546 0 3.84063 0.842855 2.34034 2.34315C0.840047 3.84344 -0.00280762 5.87827 -0.00280762 8C-0.00280762 10.1217 0.840047 12.1566 2.34034 13.6569C3.84063 15.1571 5.87546 16 7.99719 16C10.1189 16 12.1538 15.1571 13.654 13.6569C15.1543 12.1566 15.9972 10.1217 15.9972 8C15.9972 5.87827 15.1543 3.84344 13.654 2.34315C12.1538 0.842855 10.1189 0 7.99719 0Z" fill="#0288D1"/>
<path d="M3.99719 6.0001H5.59719V12.0001H3.99719V6.0001ZM4.79239 5.2001H4.78359C4.30599 5.2001 3.99719 4.8441 3.99719 4.3997C3.99719 3.9457 4.31559 3.6001 4.80159 3.6001C5.28839 3.6001 5.58799 3.9457 5.59719 4.3997C5.59719 4.8441 5.28839 5.2001 4.79239 5.2001ZM12.3972 8.2001C12.3972 6.9849 11.4124 6.0001 10.1972 6.0001C9.45239 6.0001 8.79519 6.3713 8.39719 6.9377V6.0001H6.79719V12.0001H8.39719V8.8001C8.39719 8.1373 8.93439 7.6001 9.59719 7.6001C10.26 7.6001 10.7972 8.1373 10.7972 8.8001V12.0001H12.3972C12.3972 12.0001 12.3972 8.3685 12.3972 8.2001Z" fill="white"/>
</svg>
