<svg width="27" height="30" viewBox="0 0 27 30" fill="none" xmlns="http://www.w3.org/2000/svg">
<path d="M22.2112 3.705C22.0912 3.705 21.9788 3.675 21.8663 3.6225C18.9946 2.1375 16.4979 1.5 13.5137 1.5C10.5371 1.5 7.7329 2.2125 5.16115 3.615C4.79376 3.81 4.34389 3.6825 4.14145 3.315C3.94651 2.9475 4.07397 2.4975 4.44136 2.295C7.23805 0.7725 10.2897 0 13.5137 0C16.7078 0 19.497 0.705 22.5561 2.2875C22.9235 2.475 23.0659 2.9325 22.8785 3.3C22.7435 3.555 22.4811 3.705 22.2112 3.705ZM0.752433 11.58C0.602476 11.58 0.45252 11.535 0.317559 11.445C-0.0198427 11.205 -0.102319 10.74 0.137611 10.4025C1.62218 8.3025 3.51913 6.6525 5.76848 5.49C10.4846 3.0525 16.5129 3.045 21.2365 5.475C23.4783 6.63 25.3678 8.265 26.8598 10.35C27.0998 10.6875 27.0248 11.1525 26.6874 11.3925C26.35 11.6325 25.8776 11.5575 25.6377 11.22C24.2881 9.33 22.5786 7.845 20.5542 6.81C16.2504 4.5975 10.7545 4.605 6.45827 6.825C4.42636 7.875 2.70936 9.3675 1.36725 11.2725C1.2173 11.475 0.984865 11.58 0.752433 11.58ZM10.1322 29.6775C9.93726 29.6775 9.74982 29.6025 9.59986 29.4525C8.30274 28.14 7.59794 27.3075 6.58574 25.5C5.55104 23.655 5.0037 21.3975 5.0037 18.9825C5.0037 14.5275 8.81259 10.8975 13.4987 10.8975C18.1849 10.8975 21.9938 14.52 21.9938 18.9825C21.9938 19.395 21.6564 19.7325 21.244 19.7325C20.8316 19.7325 20.4942 19.395 20.4942 18.9825C20.4942 15.3525 17.3601 12.3975 13.4987 12.3975C9.64485 12.3975 6.50326 15.3525 6.50326 18.9825C6.50326 21.1425 6.98312 23.1375 7.89036 24.765C8.85758 26.49 9.50239 27.2325 10.6571 28.395C10.9495 28.6875 10.9495 29.1675 10.6496 29.4525C10.5146 29.61 10.3197 29.6775 10.1322 29.6775ZM20.8766 26.9025C19.0921 26.9025 17.5251 26.4525 16.2279 25.575C14.0011 24.06 12.6665 21.6 12.6665 18.99C12.6665 18.5775 13.0039 18.24 13.4163 18.24C13.8286 18.24 14.166 18.5775 14.166 18.99C14.166 21.0975 15.2532 23.0925 17.0752 24.33C18.1324 25.05 19.377 25.4025 20.8766 25.4025C21.2365 25.4025 21.8438 25.365 22.4436 25.26C22.8485 25.185 23.2384 25.4625 23.3134 25.8675C23.3884 26.2725 23.1109 26.6625 22.7061 26.7375C21.8288 26.895 21.0865 26.9025 20.8766 26.9025ZM17.855 30C17.7875 30 17.72 29.9925 17.66 29.97C15.2682 29.3175 13.7087 28.4325 12.0891 26.82C9.99725 24.735 8.84258 21.9525 8.84258 18.99C8.84258 16.5525 10.912 14.5725 13.4612 14.5725C16.0105 14.5725 18.0799 16.5525 18.0799 18.99C18.0799 20.595 19.482 21.9075 21.199 21.9075C22.916 21.9075 24.3181 20.6025 24.3181 18.99C24.3181 13.335 19.4445 8.7375 13.4537 8.7375C9.18748 8.7375 5.29611 11.1075 3.54162 14.7825C2.95679 15.9975 2.66438 17.415 2.66438 18.99C2.66438 20.16 2.76935 22.005 3.66159 24.3975C3.80405 24.7875 3.6091 25.215 3.21922 25.365C2.82933 25.5075 2.40195 25.3125 2.252 24.9225C1.51721 22.95 1.15732 21.015 1.15732 18.99C1.15732 17.19 1.50221 15.555 2.18452 14.1375C4.18643 9.9525 8.61015 7.245 13.4462 7.245C20.2618 7.245 25.8102 12.5175 25.8102 18.9975C25.8102 21.435 23.7333 23.415 21.1915 23.415C18.6497 23.415 16.5728 21.435 16.5728 18.9975C16.5728 17.3925 15.1707 16.08 13.4537 16.08C11.7367 16.08 10.3346 17.385 10.3346 18.9975C10.3346 21.555 11.3319 23.9625 13.1388 25.7625C14.5559 27.1725 15.9355 27.9525 18.0499 28.53C18.4473 28.6425 18.6872 29.055 18.5748 29.4525C18.4848 29.7825 18.1849 30 17.855 30Z" fill="#4F46E5"/>
</svg>
