<svg width="24" height="24" viewBox="0 0 24 24" fill="none" xmlns="http://www.w3.org/2000/svg">
<path d="M5.39062 8.34375L5.55469 8.22656L5.71875 8.13281L5.90625 8.08594L6.09375 8.0625L6.28125 8.08594L6.46875 8.13281L6.63281 8.22656L6.79688 8.34375L12 13.5703L17.2734 8.27344L17.4375 8.17969L17.625 8.10938L17.8125 8.0625H18L18.1875 8.10938L18.3516 8.17969L18.5156 8.27344L18.6562 8.41406L18.7734 8.57812L18.8438 8.76562L18.8906 8.95312V9.14062L18.8438 9.32812L18.7734 9.51562L18.6562 9.67969L12.6328 15.7266L12.4688 15.8203L12.2812 15.8906L12.0938 15.9375H11.9062L11.7188 15.8906L11.5312 15.8203L11.3672 15.7266L5.34375 9.67969L5.22656 9.51562L5.15625 9.32812L5.10938 9.14062V8.95312L5.15625 8.76562L5.22656 8.57812L5.34375 8.41406L5.39062 8.34375Z" fill="#6B7280"/>
</svg>
