<svg width="24" height="24" viewBox="0 0 24 24" fill="none" xmlns="http://www.w3.org/2000/svg">
<path d="M8.34375 5.39062L8.50781 5.27344L8.67188 5.17969L8.85938 5.13281L9.04688 5.10938L9.23438 5.13281L9.42188 5.17969L9.58594 5.27344L9.75 5.39062L15.7266 11.3672L15.8203 11.5312L15.8906 11.7188L15.9375 11.9062V12.0938L15.8906 12.2812L15.8203 12.4688L15.7266 12.6328L9.67969 18.6797L9.51562 18.7734L9.32812 18.8438L9.14062 18.8906H8.95312L8.76562 18.8438L8.57812 18.7734L8.41406 18.6797L8.27344 18.5391L8.17969 18.375L8.10938 18.1875L8.0625 18V17.8125L8.10938 17.625L8.17969 17.4375L8.27344 17.2734L13.5703 12L8.27344 6.72656L8.17969 6.5625L8.10938 6.375L8.0625 6.1875V6L8.10938 5.8125L8.17969 5.625L8.27344 5.46094L8.34375 5.39062Z" fill="#6B7280"/>
</svg>
