<svg width="24" height="24" viewBox="0 0 24 24" fill="currentColor" xmlns="http://www.w3.org/2000/svg">
<path d="M14.6875 7.46875L14.7969 7.39062L14.9062 7.32812L15.0312 7.29688L15.1562 7.28125L15.2812 7.29688L15.4062 7.32812L15.5156 7.39062L15.625 7.46875L19.5938 11.4531L19.6719 11.5625L19.7188 11.6875L19.75 11.8125V11.9375L19.7188 12.0625L19.6719 12.1719L19.5938 12.2812L15.5625 16.3281L15.4531 16.3906L15.3438 16.4375L15.2188 16.4688H15.0938L14.9688 16.4375L14.8438 16.3906L14.7344 16.3281L14.6406 16.2188L14.5781 16.1094L14.5312 16L14.5 15.875V15.75L14.5312 15.625L14.5781 15.5L14.6406 15.3906L18.1562 11.875L14.6406 8.34375L14.5781 8.23438L14.5312 8.125L14.5 8V7.875L14.5312 7.75L14.5781 7.625L14.6406 7.51562L14.6875 7.46875ZM8.125 7.46875L8.23438 7.39062L8.34375 7.32812L8.46875 7.29688L8.59375 7.28125L8.71875 7.29688L8.84375 7.32812L8.95312 7.39062L9.0625 7.46875L9.14062 7.57812L9.20312 7.6875L9.23438 7.8125L9.25 7.9375L9.23438 8.0625L9.20312 8.1875L9.14062 8.29688L9.0625 8.40625L5.57812 11.875L9.10938 15.3906L9.17188 15.5L9.21875 15.625L9.25 15.75V15.875L9.21875 16L9.17188 16.1094L9.10938 16.2188L9.01562 16.3281L8.90625 16.3906L8.78125 16.4375L8.65625 16.4688H8.53125L8.40625 16.4375L8.29688 16.3906L8.1875 16.3281L4.15625 12.2812L4.07812 12.1719L4.03125 12.0625L4 11.9375V11.8125L4.03125 11.6875L4.07812 11.5625L4.15625 11.4531L4.1875 11.4062L8.125 7.46875ZM13.2031 4.48438L13.25 4.375L13.2969 4.29688L13.3594 4.20312L13.4375 4.14062L13.5312 4.07812L13.6094 4.03125L13.7188 4.01562L13.8125 4H13.9219L14.0156 4.01562L14.1406 4.07812L14.25 4.14062L14.3438 4.23438L14.4062 4.32812L14.4688 4.45312L14.5 4.5625V4.70312L14.4688 4.82812L10.5312 19.2656L10.5 19.375L10.4531 19.4688L10.375 19.5469L10.2969 19.625L10.2188 19.6719L10.1094 19.7188L10.0156 19.7344L9.90625 19.75H9.8125L9.67188 19.7031L9.60938 19.6719L9.5 19.6094L9.40625 19.5156L9.34375 19.4219L9.28125 19.2969L9.25 19.1875V19.0469L9.26562 18.9219L13.2031 4.48438Z" fill="#6B7280"/>
</svg>
