<svg width="24" height="24" viewBox="0 0 24 24" fill="none" xmlns="http://www.w3.org/2000/svg">
<path d="M18.8906 7.07812H8.95312L8.74219 7.125L8.67188 7.14844L8.50781 7.24219L8.34375 7.35938L8.22656 7.52344L8.13281 7.6875L8.08594 7.875L8.0625 8.0625V19.9688L8.10938 20.1562L8.13281 20.25L8.22656 20.4141L8.34375 20.5781L8.50781 20.6953L8.67188 20.7891L8.85938 20.8359L9.04688 20.8594H18.9844L19.1719 20.8125L19.2656 20.7891L19.4297 20.6953L19.5938 20.5781L19.7109 20.4141L19.8047 20.25L19.8516 20.0625L19.875 19.875V7.96875L19.8281 7.78125L19.8047 7.6875L19.7109 7.52344L19.5938 7.35938L19.4297 7.24219L19.2656 7.14844L19.0781 7.10156L18.9844 7.07812H18.8906ZM14.9531 3.14062H5.01562L4.80469 3.1875L4.73438 3.21094L4.57031 3.30469L4.40625 3.42188L4.28906 3.58594L4.19531 3.75L4.14844 3.9375L4.125 4.125V16.0312L4.17188 16.2188L4.19531 16.3125L4.28906 16.4766L4.40625 16.6406L4.57031 16.7578L4.73438 16.8516L4.92188 16.8984L5.10938 16.9219H6.09375V8.0625L6.11719 7.75781L6.16406 7.47656L6.23438 7.19531L6.32812 6.91406L6.44531 6.65625L6.58594 6.42188L6.77344 6.1875L6.96094 5.97656L7.17188 5.78906L7.40625 5.625L7.64062 5.46094L7.89844 5.34375L8.17969 5.25L8.46094 5.17969L8.74219 5.13281L9.04688 5.10938H15.9375V4.03125L15.8906 3.84375L15.8672 3.75L15.7734 3.58594L15.6562 3.42188L15.4922 3.30469L15.3281 3.21094L15.1406 3.16406L15.0469 3.14062H14.9531ZM2.15625 4.125L2.17969 3.82031L2.22656 3.53906L2.29688 3.25781L2.39062 2.97656L2.50781 2.71875L2.67188 2.48438L2.83594 2.25L3.02344 2.03906L3.23438 1.85156L3.46875 1.6875L3.70312 1.52344L3.96094 1.40625L4.24219 1.3125L4.52344 1.24219L4.80469 1.19531L5.10938 1.17188H14.9531L15.2578 1.19531L15.5391 1.24219L15.8203 1.3125L16.1016 1.40625L16.3594 1.52344L16.5938 1.6875L16.8281 1.85156L17.0391 2.03906L17.2266 2.25L17.3906 2.48438L17.5547 2.71875L17.6719 2.97656L17.7656 3.25781L17.8359 3.53906L17.8828 3.82031L17.9062 4.125V5.10938H18.8906L19.1953 5.13281L19.4766 5.17969L19.7578 5.25L20.0391 5.34375L20.2969 5.46094L20.5312 5.625L20.7656 5.78906L20.9766 5.97656L21.1641 6.1875L21.3281 6.42188L21.4922 6.65625L21.6094 6.91406L21.7031 7.19531L21.7734 7.47656L21.8203 7.75781L21.8438 8.0625V19.875L21.8203 20.1797L21.7734 20.4609L21.7031 20.7422L21.6094 21.0234L21.4922 21.2812L21.3281 21.5156L21.1641 21.75L20.9766 21.9609L20.7656 22.1484L20.5312 22.3125L20.2969 22.4766L20.0391 22.5938L19.7578 22.6875L19.4766 22.7578L19.1953 22.8047L18.8906 22.8281H9.04688L8.74219 22.8047L8.46094 22.7578L8.17969 22.6875L7.89844 22.5938L7.64062 22.4766L7.40625 22.3125L7.17188 22.1484L6.96094 21.9609L6.77344 21.75L6.60938 21.5156L6.44531 21.2812L6.32812 21.0234L6.23438 20.7422L6.16406 20.4609L6.11719 20.1797L6.09375 19.875V18.8906H5.10938L4.80469 18.8672L4.52344 18.8203L4.24219 18.75L3.96094 18.6562L3.70312 18.5391L3.46875 18.375L3.23438 18.2109L3.02344 18.0234L2.83594 17.8125L2.67188 17.5781L2.50781 17.3438L2.39062 17.0859L2.29688 16.8047L2.22656 16.5234L2.17969 16.2422L2.15625 15.9375V4.125Z" fill="#6B7280"/>
</svg>
