<svg width="24" height="24" viewBox="0 0 24 24" fill="none" xmlns="http://www.w3.org/2000/svg">
<path d="M11.9999 2.3999C6.6983 2.3999 2.3999 6.6983 2.3999 11.9999C2.3999 16.4983 5.4975 20.2623 9.6735 21.3039C9.6287 21.1743 9.5999 21.0239 9.5999 20.8375V19.1967C9.2103 19.1967 8.5575 19.1967 8.3935 19.1967C7.7367 19.1967 7.1527 18.9143 6.8695 18.3895C6.5551 17.8063 6.5007 16.9143 5.7215 16.3687C5.4903 16.1871 5.6663 15.9799 5.9327 16.0079C6.4247 16.1471 6.8327 16.4847 7.2167 16.9855C7.5991 17.4871 7.7791 17.6007 8.4935 17.6007C8.8399 17.6007 9.3583 17.5807 9.8463 17.5039C10.1087 16.8375 10.5623 16.2239 11.1167 15.9343C7.9199 15.6055 6.3943 14.0151 6.3943 11.8559C6.3943 10.9263 6.7903 10.0271 7.4631 9.2695C7.2423 8.5175 6.9647 6.9839 7.5479 6.3999C8.9863 6.3999 9.8559 7.3327 10.0647 7.5847C10.7815 7.3391 11.5687 7.1999 12.3959 7.1999C13.2247 7.1999 14.0151 7.3391 14.7335 7.5863C14.9399 7.3359 15.8103 6.3999 17.2519 6.3999C17.8375 6.9847 17.5567 8.5247 17.3335 9.2751C18.0023 10.0311 18.3959 10.9279 18.3959 11.8559C18.3959 14.0135 16.8727 15.6031 13.6807 15.9335C14.5591 16.3919 15.1999 17.6799 15.1999 18.6503V20.8375C15.1999 20.9207 15.1815 20.9807 15.1719 21.0519C18.9127 19.7407 21.5999 16.1887 21.5999 11.9999C21.5999 6.6983 17.3015 2.3999 11.9999 2.3999Z" fill="#6B7280"/>
</svg>
