<svg width="24" height="24" viewBox="0 0 24 24" fill="none" xmlns="http://www.w3.org/2000/svg">
<path d="M19.875 14.9531H14.9531V19.875H19.875V14.9531ZM9.04688 14.9531H4.125V19.875H9.04688V14.9531ZM12.9844 13.9688L13.0078 13.7812L13.0547 13.5938L13.1484 13.4297L13.2656 13.2656L13.4297 13.1484L13.5938 13.0547L13.7812 13.0078L13.9688 12.9844H20.9531L21.1406 13.0312L21.2344 13.0547L21.3984 13.1484L21.5625 13.2656L21.6797 13.4297L21.7734 13.5938L21.8203 13.7812L21.8438 13.9688V20.9531L21.7969 21.1406L21.7734 21.2344L21.6797 21.3984L21.5625 21.5625L21.3984 21.6797L21.2344 21.7734L21.0469 21.8203L20.8594 21.8438H13.875L13.6875 21.7969L13.5938 21.7734L13.4297 21.6797L13.2656 21.5625L13.1484 21.3984L13.0547 21.2344L13.0078 21.0469L12.9844 20.8594V13.9688ZM2.15625 13.9688L2.17969 13.7812L2.22656 13.5938L2.32031 13.4297L2.4375 13.2656L2.60156 13.1484L2.76562 13.0547L2.95312 13.0078L3.14062 12.9844H10.125L10.3125 13.0312L10.4062 13.0547L10.5703 13.1484L10.7344 13.2656L10.8516 13.4297L10.9453 13.5938L10.9922 13.7812L11.0156 13.9688V20.9531L10.9688 21.1406L10.9453 21.2344L10.8516 21.3984L10.7344 21.5625L10.5703 21.6797L10.4062 21.7734L10.2188 21.8203L10.0312 21.8438H3.04688L2.85938 21.7969L2.76562 21.7734L2.60156 21.6797L2.4375 21.5625L2.32031 21.3984L2.22656 21.2344L2.17969 21.0469L2.15625 20.8594V13.9688ZM19.875 4.125H14.9531V9.04688H19.875V4.125ZM9.04688 4.125H4.125V9.04688H9.04688V4.125ZM12.9844 3.14062L13.0078 2.95312L13.0547 2.76562L13.1484 2.60156L13.2656 2.4375L13.4297 2.32031L13.5938 2.22656L13.7812 2.17969L13.9688 2.15625H20.9531L21.1406 2.20312L21.2344 2.22656L21.3984 2.32031L21.5625 2.4375L21.6797 2.60156L21.7734 2.76562L21.8203 2.95312L21.8438 3.14062V10.125L21.7969 10.3125L21.7734 10.4062L21.6797 10.5703L21.5625 10.7344L21.3984 10.8516L21.2344 10.9453L21.0469 10.9922L20.8594 11.0156H13.875L13.6875 10.9688L13.5938 10.9453L13.4297 10.8516L13.2656 10.7344L13.1484 10.5703L13.0547 10.4062L13.0078 10.2188L12.9844 10.0312V3.14062ZM2.15625 3.14062L2.17969 2.95312L2.22656 2.76562L2.32031 2.60156L2.4375 2.4375L2.60156 2.32031L2.76562 2.22656L2.95312 2.17969L3.14062 2.15625H10.125L10.3125 2.20312L10.4062 2.22656L10.5703 2.32031L10.7344 2.4375L10.8516 2.60156L10.9453 2.76562L10.9922 2.95312L11.0156 3.14062V10.125L10.9688 10.3125L10.9453 10.4062L10.8516 10.5703L10.7344 10.7344L10.5703 10.8516L10.4062 10.9453L10.2188 10.9922L10.0312 11.0156H3.04688L2.85938 10.9688L2.76562 10.9453L2.60156 10.8516L2.4375 10.7344L2.32031 10.5703L2.22656 10.4062L2.17969 10.2188L2.15625 10.0312V3.14062Z" fill="#0E7490"/>
</svg>
