<svg width="20" height="20" viewBox="0 0 20 20" fill="none" xmlns="http://www.w3.org/2000/svg">
<path d="M17.875 12.9531H12.9531V17.875H17.875V12.9531ZM7.04688 12.9531H2.125V17.875H7.04688V12.9531ZM10.9844 11.9688L11.0078 11.7812L11.0547 11.5938L11.1484 11.4297L11.2656 11.2656L11.4297 11.1484L11.5938 11.0547L11.7812 11.0078L11.9688 10.9844H18.9531L19.1406 11.0312L19.2344 11.0547L19.3984 11.1484L19.5625 11.2656L19.6797 11.4297L19.7734 11.5938L19.8203 11.7812L19.8438 11.9688V18.9531L19.7969 19.1406L19.7734 19.2344L19.6797 19.3984L19.5625 19.5625L19.3984 19.6797L19.2344 19.7734L19.0469 19.8203L18.8594 19.8438H11.875L11.6875 19.7969L11.5938 19.7734L11.4297 19.6797L11.2656 19.5625L11.1484 19.3984L11.0547 19.2344L11.0078 19.0469L10.9844 18.8594V11.9688ZM0.15625 11.9688L0.179688 11.7812L0.226562 11.5938L0.320312 11.4297L0.4375 11.2656L0.601562 11.1484L0.765625 11.0547L0.953125 11.0078L1.14062 10.9844H8.125L8.3125 11.0312L8.40625 11.0547L8.57031 11.1484L8.73438 11.2656L8.85156 11.4297L8.94531 11.5938L8.99219 11.7812L9.01562 11.9688V18.9531L8.96875 19.1406L8.94531 19.2344L8.85156 19.3984L8.73438 19.5625L8.57031 19.6797L8.40625 19.7734L8.21875 19.8203L8.03125 19.8438H1.04688L0.859375 19.7969L0.765625 19.7734L0.601562 19.6797L0.4375 19.5625L0.320312 19.3984L0.226562 19.2344L0.179688 19.0469L0.15625 18.8594V11.9688ZM17.875 2.125H12.9531V7.04688H17.875V2.125ZM7.04688 2.125H2.125V7.04688H7.04688V2.125ZM10.9844 1.14062L11.0078 0.953125L11.0547 0.765625L11.1484 0.601562L11.2656 0.4375L11.4297 0.320312L11.5938 0.226562L11.7812 0.179688L11.9688 0.15625H18.9531L19.1406 0.203125L19.2344 0.226562L19.3984 0.320312L19.5625 0.4375L19.6797 0.601562L19.7734 0.765625L19.8203 0.953125L19.8438 1.14062V8.125L19.7969 8.3125L19.7734 8.40625L19.6797 8.57031L19.5625 8.73438L19.3984 8.85156L19.2344 8.94531L19.0469 8.99219L18.8594 9.01562H11.875L11.6875 8.96875L11.5938 8.94531L11.4297 8.85156L11.2656 8.73438L11.1484 8.57031L11.0547 8.40625L11.0078 8.21875L10.9844 8.03125V1.14062ZM0.15625 1.14062L0.179688 0.953125L0.226562 0.765625L0.320312 0.601562L0.4375 0.4375L0.601562 0.320312L0.765625 0.226562L0.953125 0.179688L1.14062 0.15625H8.125L8.3125 0.203125L8.40625 0.226562L8.57031 0.320312L8.73438 0.4375L8.85156 0.601562L8.94531 0.765625L8.99219 0.953125L9.01562 1.14062V8.125L8.96875 8.3125L8.94531 8.40625L8.85156 8.57031L8.73438 8.73438L8.57031 8.85156L8.40625 8.94531L8.21875 8.99219L8.03125 9.01562H1.04688L0.859375 8.96875L0.765625 8.94531L0.601562 8.85156L0.4375 8.73438L0.320312 8.57031L0.226562 8.40625L0.179688 8.21875L0.15625 8.03125V1.14062Z" fill="#0E7490"/>
</svg>
