<svg width="24" height="24" viewBox="0 0 24 24" fill="none" xmlns="http://www.w3.org/2000/svg">
<path d="M16.2188 5.39062L16.3828 5.27344L16.5469 5.17969L16.7344 5.13281L16.9219 5.10938L17.1094 5.13281L17.2969 5.17969L17.4609 5.27344L17.625 5.39062L23.5781 11.3672L23.6953 11.5312L23.7656 11.7188L23.8125 11.9062V12.0938L23.7656 12.2812L23.6953 12.4453L23.5781 12.6094L17.5312 18.6797L17.3672 18.7734L17.2031 18.8438L17.0156 18.8906H16.8281L16.6406 18.8438L16.4531 18.7734L16.2891 18.6797L16.1484 18.5156L16.0547 18.3516L15.9844 18.1875L15.9375 18V17.8125L15.9844 17.625L16.0547 17.4375L16.1484 17.2734L21.4219 12L16.1484 6.70312L16.0547 6.53906L15.9844 6.375L15.9375 6.1875V6L15.9844 5.8125L16.0547 5.625L16.1484 5.46094L16.2188 5.39062ZM6.375 5.39062L6.53906 5.27344L6.70312 5.17969L6.89062 5.13281L7.07812 5.10938L7.26562 5.13281L7.45312 5.17969L7.61719 5.27344L7.78125 5.39062L7.89844 5.55469L7.99219 5.71875L8.03906 5.90625L8.0625 6.09375L8.03906 6.28125L7.99219 6.46875L7.89844 6.63281L7.78125 6.79688L2.55469 12L7.85156 17.2734L7.94531 17.4375L8.01562 17.625L8.0625 17.8125V18L8.01562 18.1875L7.94531 18.3516L7.85156 18.5156L7.71094 18.6797L7.54688 18.7734L7.35938 18.8438L7.17188 18.8906H6.98438L6.79688 18.8438L6.63281 18.7734L6.46875 18.6797L0.421875 12.6094L0.304688 12.4453L0.234375 12.2812L0.1875 12.0938V11.9062L0.234375 11.7188L0.304688 11.5312L0.421875 11.3672L0.46875 11.2969L6.375 5.39062ZM13.9922 0.914062L14.0625 0.75L14.1328 0.632812L14.2266 0.492188L14.3438 0.398438L14.4844 0.304688L14.6016 0.234375L14.7656 0.210938L14.9062 0.1875H15.0703L15.2109 0.210938L15.3984 0.304688L15.5625 0.398438L15.7031 0.539062L15.7969 0.679688L15.8906 0.867188L15.9375 1.03125V1.24219L15.8906 1.42969L9.98438 23.0859L9.9375 23.25L9.86719 23.3906L9.75 23.5078L9.63281 23.625L9.51562 23.6953L9.35156 23.7656L9.21094 23.7891L9.04688 23.8125H8.90625L8.69531 23.7422L8.60156 23.6953L8.4375 23.6016L8.29688 23.4609L8.20312 23.3203L8.10938 23.1328L8.0625 22.9688V22.7578L8.08594 22.5703L13.9922 0.914062Z" fill="#0E7490"/>
</svg>
