<svg width="24" height="24" viewBox="0 0 24 24" fill="currentColor" xmlns="http://www.w3.org/2000/svg">
<path d="M13.1875 11.9062V11.7656L13.1562 11.6406L13.125 11.5156L13.0781 11.3906L13.0312 11.2812L12.9688 11.1719L12.8906 11.0781L12.7969 10.9844L12.7031 10.8906L12.6094 10.8125L12.5 10.75L12.3906 10.7031L12.2656 10.6562L12.1406 10.625L12.0156 10.5938H11.875H11.7344L11.6094 10.625L11.4844 10.6562L11.3594 10.7031L11.25 10.75L11.1406 10.8125L11.0469 10.8906L10.9531 10.9844L10.8594 11.0781L10.7812 11.1719L10.7188 11.2812L10.6719 11.3906L10.625 11.5156L10.5938 11.6406L10.5625 11.7656V11.9062V12.0469L10.5938 12.1719L10.625 12.2969L10.6719 12.4219L10.7188 12.5312L10.7812 12.6406L10.8594 12.7344L10.9531 12.8281L11.0469 12.9219L11.1406 13L11.25 13.0625L11.3594 13.1094L11.4844 13.1562L11.6094 13.1875L11.7344 13.2188H11.875H12.0156L12.1406 13.1875L12.2656 13.1562L12.3906 13.1094L12.5 13.0625L12.6094 13L12.7031 12.9219L12.7969 12.8281L12.8906 12.7344L12.9688 12.6406L13.0312 12.5312L13.0781 12.4219L13.125 12.2969L13.1562 12.1719L13.1875 12.0469V11.9062ZM9.25 11.9062L9.26562 11.6406L9.29688 11.375L9.375 11.125L9.45312 10.8906L9.5625 10.6562L9.70312 10.4375L9.84375 10.2344L10.0156 10.0469L10.2031 9.875L10.4062 9.73438L10.625 9.59375L10.8594 9.48438L11.0938 9.40625L11.3438 9.32812L11.6094 9.29688L11.875 9.28125L12.1406 9.29688L12.4062 9.32812L12.6562 9.40625L12.8906 9.48438L13.125 9.59375L13.3438 9.73438L13.5469 9.875L13.7344 10.0469L13.9062 10.2344L14.0469 10.4375L14.1875 10.6562L14.2969 10.8906L14.375 11.125L14.4531 11.375L14.4844 11.6406L14.5 11.9062L14.4844 12.1719L14.4531 12.4375L14.375 12.6875L14.2969 12.9219L14.1875 13.1562L14.0469 13.375L13.9062 13.5781L13.7344 13.7656L13.5469 13.9375L13.3438 14.0781L13.125 14.2188L12.8906 14.3281L12.6562 14.4062L12.4062 14.4844L12.1406 14.5156L11.875 14.5312L11.6094 14.5156L11.3438 14.4844L11.0938 14.4062L10.8594 14.3281L10.625 14.2188L10.4062 14.0781L10.2031 13.9375L10.0156 13.7656L9.84375 13.5781L9.70312 13.375L9.5625 13.1562L9.45312 12.9219L9.375 12.6875L9.29688 12.4375L9.26562 12.1719L9.25 12.0469V11.9062ZM16.7344 9.73438L16.4531 9.45312L16.1875 9.1875L15.9062 8.9375L15.625 8.70312L15.3281 8.5L15.0469 8.29688L14.75 8.10938L14.4375 7.95312L14.1406 7.79688L13.8281 7.67188L13.5156 7.5625L13.1875 7.46875L12.875 7.40625L12.5469 7.35938L12.2188 7.32812L11.875 7.3125L11.5469 7.32812L11.2031 7.35938L10.875 7.40625L10.5625 7.46875L10.2344 7.5625L9.92188 7.67188L9.60938 7.79688L9.3125 7.95312L9 8.10938L8.70312 8.29688L8.42188 8.5L8.125 8.70312L7.84375 8.9375L7.5625 9.1875L7.29688 9.45312L7.01562 9.73438L6.65625 10.1406L6.3125 10.5781L5.98438 11L5.6875 11.4375L5.40625 11.9062L5.6875 12.375L5.98438 12.8125L6.3125 13.2344L6.65625 13.6719L7.01562 14.0781L7.29688 14.3594L7.5625 14.625L7.84375 14.875L8.125 15.1094L8.42188 15.3125L8.70312 15.5156L9 15.7031L9.3125 15.8594L9.60938 16.0156L9.92188 16.1406L10.2344 16.25L10.5625 16.3438L10.875 16.4062L11.2031 16.4531L11.5469 16.4844L11.875 16.5L12.2188 16.4844L12.5469 16.4531L12.875 16.4062L13.1875 16.3438L13.5156 16.25L13.8281 16.1406L14.1406 16.0156L14.4375 15.8594L14.75 15.7031L15.0469 15.5156L15.3281 15.3125L15.625 15.1094L15.9062 14.875L16.1875 14.625L16.4531 14.3594L16.7344 14.0781L17.0938 13.6719L17.4375 13.2344L17.7656 12.8125L18.0625 12.375L18.3438 11.9062L18.0625 11.4375L17.7656 11L17.4375 10.5781L17.0938 10.1406L16.9219 9.9375L16.7344 9.73438ZM6.0625 8.82812L6.375 8.51562L6.70312 8.20312L7.03125 7.92188L7.35938 7.64062L7.70312 7.39062L8.04688 7.15625L8.39062 6.95312L8.76562 6.75L9.125 6.57812L9.5 6.4375L9.875 6.29688L10.2656 6.1875L10.6562 6.10938L11.0625 6.04688L11.4688 6.01562L11.875 6L12.2812 6.01562L12.6875 6.04688L13.0938 6.10938L13.4844 6.1875L13.875 6.29688L14.25 6.4375L14.625 6.57812L15 6.75L15.3594 6.95312L15.7031 7.15625L16.0469 7.39062L16.3906 7.64062L16.7188 7.92188L17.0469 8.20312L17.375 8.51562L17.6875 8.82812L18.0938 9.29688L18.4844 9.76562L18.8281 10.25L19.3281 11.0156L19.6719 11.6094L19.7344 11.75L19.75 11.9062L19.7344 12.0625L19.6719 12.2031L19.3438 12.8125L19 13.3281L18.6562 13.8125L18.2969 14.2812L17.8906 14.75L17.6875 14.9844L17.375 15.2969L17.0469 15.6094L16.7188 15.8906L16.3906 16.1719L16.0469 16.4219L15.7031 16.6562L15.3594 16.8594L15 17.0625L14.625 17.2344L14.25 17.375L13.875 17.5156L13.4844 17.625L13.0938 17.7031L12.6875 17.7656L12.2812 17.7969L11.875 17.8125L11.4688 17.7969L11.0625 17.7656L10.6562 17.7031L10.2656 17.625L9.875 17.5156L9.5 17.375L9.125 17.2344L8.76562 17.0625L8.39062 16.8594L8.04688 16.6562L7.70312 16.4219L7.35938 16.1719L7.03125 15.8906L6.70312 15.6094L6.375 15.2969L6.0625 14.9844L5.65625 14.5156L5.26562 14.0469L4.92188 13.5625L4.42188 12.7969L4.07812 12.2031L4.01562 12.0625L4 11.9062L4.01562 11.75L4.07812 11.6094L4.42188 11L4.75 10.4844L5.09375 10L5.45312 9.53125L5.85938 9.0625L6.0625 8.82812Z" fill="#6B7280"/>
</svg>
