<svg width="128" height="28" viewBox="0 0 128 28" fill="none" xmlns="http://www.w3.org/2000/svg">
<path d="M35.4257 13.1316H28.295C27.5364 13.1316 26.9675 13.2833 26.6261 13.5488C26.2848 13.8522 26.0951 14.2694 26.0951 14.9142C26.0951 15.4073 26.2468 15.7866 26.5503 16.0142C26.8537 16.2797 27.3088 16.3935 27.9157 16.3935H31.7086C33.2637 16.3935 34.4016 16.6969 35.0464 17.2658C35.7291 17.8727 36.0325 18.8588 36.0325 20.2243C36.0325 21.6277 35.6532 22.6518 34.8947 23.3345C34.1361 23.9793 32.9223 24.3206 31.2914 24.3206H23.6297V21.8932H30.8362C31.6707 21.8932 32.2396 21.7794 32.581 21.5518C32.9223 21.3242 33.0741 20.907 33.0741 20.376C33.0741 19.8071 32.9223 19.3899 32.6189 19.1623C32.3155 18.9347 31.7845 18.783 31.0259 18.783H27.6123C26.0572 18.783 24.8814 18.4796 24.1607 17.8348C23.4401 17.19 23.0608 16.2038 23.0608 14.8763C23.0608 13.435 23.4401 12.373 24.1987 11.6903C24.9572 11.0075 26.171 10.7041 27.8399 10.7041H35.4257V13.1316Z" fill="black"/>
<path d="M41.9496 22.1212H44.0736V14.3457H46.7286V24.0935C46.7286 25.421 46.4252 26.4071 45.8183 27.0519C45.2115 27.6967 44.2632 28.0002 42.9736 28.0002H37.8153V25.952H42.5185C43.0116 25.952 43.4288 25.8382 43.6943 25.5727C43.9598 25.3451 44.1115 24.9658 44.1115 24.5107V24.359H41.7978C40.3186 24.359 39.2187 24.0555 38.6118 23.4866C37.967 22.8797 37.6636 21.9315 37.6636 20.5281V14.3457H40.2807V20.3006C40.2807 21.0591 40.3945 21.5522 40.622 21.7798C40.7738 22.0074 41.2289 22.1212 41.9496 22.1212Z" fill="black"/>
<path d="M48.7767 14.3457H53.7454C55.2626 14.3457 56.3246 14.6112 56.9694 15.1801C57.6142 15.7491 57.9176 16.6973 57.9176 17.9869V24.321H55.2626V18.3283C55.2626 17.5697 55.1488 17.0766 54.9212 16.887C54.6936 16.6594 54.2385 16.5456 53.5178 16.5456H51.3938V24.359H48.7388V14.3457H48.7767Z" fill="black"/>
<path d="M65.3896 22.1967H68.1964V24.3207H64.5931C63.6828 24.3207 62.9242 24.2069 62.3553 24.0552C61.7863 23.8656 61.2553 23.5621 60.8381 23.1449C60.383 22.6898 60.0037 22.1208 59.7382 21.476C59.4727 20.8312 59.3589 20.1106 59.3589 19.3899C59.3589 18.6314 59.4727 17.9107 59.7382 17.228C60.0037 16.5453 60.345 16.0143 60.8381 15.5591C61.2933 15.1419 61.7863 14.8384 62.3932 14.6488C63.0001 14.4592 63.7207 14.3833 64.631 14.3833H68.2343V16.5453H65.3896C64.1379 16.5453 63.3035 16.7728 62.8104 17.1901C62.3553 17.6073 62.0898 18.3659 62.0898 19.4279C62.0898 20.0347 62.2036 20.5278 62.3932 20.945C62.5829 21.3622 62.8863 21.6657 63.2656 21.9312C63.4552 22.045 63.6828 22.1208 63.9483 22.1967C64.2517 22.1588 64.7069 22.1967 65.3896 22.1967Z" fill="black"/>
<path d="M70.5481 16.3176H68.6516V14.3074H70.5481V13.2833C70.5481 12.2592 70.7377 11.5765 71.117 11.2351C71.4963 10.8937 72.2169 10.7041 73.279 10.7041H75.7823V12.6006H74.5306C74.0755 12.6006 73.772 12.6764 73.5824 12.8281C73.3927 12.9798 73.279 13.2074 73.279 13.5109V14.3074H75.7823V16.3176H73.279V24.3206H70.5481V16.3176Z" fill="black"/>
<path d="M85.8714 24.321H80.9027C79.4234 24.321 78.3993 24.0176 77.7166 23.4487C77.0718 22.8797 76.7305 21.9315 76.7305 20.6419V14.3457H79.3476V20.4902C79.3476 21.1729 79.4614 21.5902 79.6889 21.8177C79.9165 22.0453 80.3717 22.1591 81.0923 22.1591H83.2163V14.3457H85.8714V24.321Z" fill="black"/>
<path d="M87.8057 22.2349H93.3813C93.8743 22.2349 94.2536 22.1591 94.4812 22.0074C94.7088 21.8557 94.8226 21.5902 94.8226 21.2867C94.8226 20.9454 94.7088 20.7178 94.4812 20.5281C94.2536 20.3764 93.8743 20.3006 93.4192 20.3006H91.1434C89.778 20.3006 88.8677 20.1109 88.4125 19.6937C87.9195 19.2765 87.6919 18.5558 87.6919 17.4938C87.6919 16.4318 87.9953 15.6353 88.5643 15.1043C89.1332 14.6112 90.0435 14.3457 91.2193 14.3457H96.9087V16.4318H92.2434C91.4848 16.4318 90.9917 16.5077 90.7641 16.6214C90.5366 16.7732 90.4228 17.0007 90.4228 17.3421C90.4228 17.6455 90.5366 17.8731 90.7262 18.0248C90.9159 18.1765 91.2572 18.2524 91.6744 18.2524H94.064C95.1639 18.2524 95.9984 18.5179 96.5673 19.011C97.1362 19.5041 97.4397 20.2626 97.4397 21.2109C97.4397 22.1212 97.1742 22.8797 96.6811 23.4487C96.188 24.0176 95.5053 24.321 94.7088 24.321H87.8815V22.2349H87.8057Z" fill="black"/>
<path d="M101.726 13.2076H98.957V10.7422H101.726V13.2076ZM101.726 24.3208H98.957V14.3454H101.726V24.3208Z" fill="black"/>
<path d="M113.711 19.3522C113.711 20.9073 113.218 22.159 112.27 23.1072C111.322 24.0554 110.032 24.5106 108.401 24.5106C106.77 24.5106 105.481 24.0554 104.533 23.1072C103.584 22.159 103.091 20.9073 103.091 19.3522C103.091 17.7971 103.584 16.5454 104.533 15.5972C105.481 14.649 106.808 14.1938 108.401 14.1938C109.994 14.1938 111.284 14.649 112.27 15.5972C113.218 16.5075 113.711 17.7592 113.711 19.3522ZM105.822 19.3522C105.822 20.3004 106.05 21.059 106.505 21.59C106.96 22.121 107.567 22.3865 108.363 22.3865C109.16 22.3865 109.767 22.121 110.222 21.59C110.677 21.059 110.905 20.3004 110.905 19.3522C110.905 18.404 110.677 17.6454 110.222 17.1523C109.767 16.6213 109.16 16.3558 108.326 16.3558C107.529 16.3558 106.922 16.6213 106.467 17.1523C106.05 17.6454 105.822 18.404 105.822 19.3522Z" fill="black"/>
<path d="M115.001 14.3457H119.97C121.487 14.3457 122.549 14.6112 123.193 15.1801C123.838 15.7491 124.142 16.6973 124.142 17.9869V24.321H121.487V18.3283C121.487 17.5697 121.373 17.0766 121.145 16.887C120.918 16.6594 120.463 16.5456 119.742 16.5456H117.618V24.359H114.963V14.3457H115.001Z" fill="black"/>
<path d="M6.22037 3.27002H0V9.49039H6.22037V3.27002Z" fill="black"/>
<path d="M20.2896 -0.000109579L16.1882 4.82715L21.0155 8.92851L25.1169 4.10125L20.2896 -0.000109579Z" fill="black"/>
<path d="M13.6166 3.27002H7.39624V9.49039H13.6166V3.27002Z" fill="black"/>
<path d="M6.22037 10.6665H0V16.8869H6.22037V10.6665Z" fill="black"/>
<path d="M13.6166 10.6665H7.39624V16.8869H13.6166V10.6665Z" fill="black"/>
<path d="M21.0126 10.6665H14.7922V16.8869H21.0126V10.6665Z" fill="black"/>
<path d="M6.22037 18.1006H0V24.321H6.22037V18.1006Z" fill="black"/>
<path d="M13.6166 18.1006H7.39624V24.321H13.6166V18.1006Z" fill="black"/>
<path d="M21.0507 18.1006H14.8303V24.321H21.0507V18.1006Z" fill="black"/>
<path d="M127.404 13.8523C127.404 14.7626 126.683 15.4832 125.773 15.4832C124.863 15.4832 124.142 14.7626 124.142 13.8523C124.142 12.942 124.863 12.2592 125.773 12.2592C126.645 12.2213 127.404 12.942 127.404 13.8523ZM124.749 12.942C124.521 13.1695 124.407 13.5109 124.407 13.8523C124.407 14.6108 125.014 15.2177 125.773 15.2177C126.531 15.2177 127.138 14.6108 127.138 13.8523C127.138 13.1316 126.531 12.4868 125.811 12.4868C125.356 12.4868 125.014 12.6385 124.749 12.942ZM126.418 14.8005H126.076L125.583 14.0798V14.8005H125.318V12.904H125.621C126.038 12.904 126.228 13.0937 126.228 13.435C126.228 13.7005 126.076 13.8902 125.811 13.9661L126.418 14.8005ZM125.697 13.7005C125.887 13.7005 126 13.5868 126 13.435C126 13.2454 125.887 13.1695 125.659 13.1695H125.583V13.7005H125.697Z" fill="black"/>
</svg>
