<svg width="24" height="24" viewBox="0 0 24 24" fill="none" xmlns="http://www.w3.org/2000/svg">
<path d="M16.3516 9.16406L16.4473 9.0957L16.543 9.04102L16.6523 9.01367L16.7617 9L16.8711 9.01367L16.9805 9.04102L17.0762 9.0957L17.1719 9.16406L17.2402 9.25977L17.2949 9.35547L17.3223 9.46484L17.3359 9.57422L17.3223 9.68359L17.2949 9.79297L17.2402 9.88867L17.1719 9.98438L10.8145 16.3418L10.7188 16.3965L10.6094 16.4375L10.5 16.4648H10.3906L10.2812 16.4375L10.1855 16.3965L10.0898 16.3418L7.12305 13.3887L7.06836 13.293L7.02734 13.1836L7 13.0742V12.9648L7.02734 12.8555L7.06836 12.7461L7.12305 12.6504L7.21875 12.5684L7.31445 12.5137L7.41016 12.4727L7.51953 12.4453H7.62891L7.73828 12.4727L7.84766 12.5137L7.94336 12.5684L10.4453 15.084L16.3516 9.16406Z" fill="#4F46E5"/>
</svg>
